<svg width="346" height="410" viewBox="0 0 346 410" fill="none" xmlns="http://www.w3.org/2000/svg">
<rect x="2.5" y="2.5" width="340.361" height="405" stroke="black" stroke-width="5"/>
<path d="M339.862 5.50781V404.5H5.50049V5.50781H339.862Z" fill="white" stroke="black"/>
<path fill-rule="evenodd" clip-rule="evenodd" d="M209.854 100.33L209.883 109.729C209.869 105.959 209.854 102.254 209.854 100.33ZM209.884 109.867L209.914 119.825C209.914 117.733 209.899 113.777 209.884 109.867Z" fill="black"/>
<path d="M340.232 5.00001H127.597L127.598 214.714H205.344C205.344 207.285 208.771 203.285 215.628 203.285H249.882C261.311 203.285 264.74 206.714 264.74 218.142L264.771 322.142C264.771 333.571 261.343 336.999 249.914 336.999L237.343 336.999H220.2C208.739 336.999 205.343 333.571 205.343 322.142V262.142H127.629V352.999C127.629 375.271 156.22 404.428 184.771 404.428H279.628C303.611 404.428 340.232 380.49 340.232 352.428V178.263C340.232 156.437 312.157 134.714 280.751 134.714H224.771C213.343 134.714 209.914 131.285 209.914 119.825L209.884 109.867L209.883 109.729C209.869 105.959 209.854 102.254 209.854 100.33V87.7585C209.854 76.3299 213.283 72.9014 224.711 72.9014L340.232 72.9014V5.00001Z" fill="black"/>
<path d="M109.343 404.428V5L55.6605 5.00002L5.3433 31.2857V78.1427C22.4543 78.169 26.5266 78.3939 26.5178 94.9998V404.428H109.343Z" fill="black"/>
</svg>
